<?xml version="1.0" standalone="no"?>
<!DOCTYPE svg PUBLIC "-//W3C//DTD SVG 20010904//EN"
 "http://www.w3.org/TR/2001/REC-SVG-20010904/DTD/svg10.dtd">
<svg version="1.0" xmlns="http://www.w3.org/2000/svg"
 width="1024.000000pt" height="1024.000000pt" viewBox="0 0 1024.000000 1024.000000"
 preserveAspectRatio="xMidYMid meet">
<metadata>
Created by potrace 1.14, written by Peter Selinger 2001-2017
</metadata>
<g transform="translate(0.000000,1024.000000) scale(0.100000,-0.100000)"
fill="#000000" stroke="none">
<path d="M2000 9607 c-3 -3 -59 -7 -125 -11 -66 -3 -129 -8 -140 -10 -11 -2
-38 -7 -60 -11 -22 -4 -50 -9 -62 -11 -12 -2 -60 -18 -105 -34 -46 -17 -87
-31 -93 -33 -5 -1 -12 -4 -15 -7 -3 -3 -36 -21 -75 -40 -230 -113 -437 -328
-557 -578 -28 -56 -51 -108 -52 -115 -2 -7 -6 -19 -9 -27 -5 -12 -29 -99 -29
-107 0 -1 -8 -28 -17 -60 -14 -53 -16 -368 -18 -3403 -2 -2867 0 -3358 12
-3435 48 -297 210 -588 436 -777 24 -21 50 -43 57 -49 82 -69 331 -192 432
-214 8 -2 38 -9 65 -15 70 -16 106 -20 223 -25 56 -2 106 -7 111 -10 5 -3 12
-1 15 4 3 5 20 5 38 2 18 -4 47 -4 64 0 18 3 37 3 44 -1 7 -4 27 -4 45 0 18 4
38 4 45 0 7 -4 24 -4 39 -1 14 4 42 4 62 1 19 -4 44 -4 54 0 11 4 34 4 52 -1
18 -4 35 -3 38 1 3 4 20 5 37 1 18 -4 47 -4 65 -1 17 4 37 4 43 0 7 -4 27 -4
45 0 18 4 38 4 45 0 7 -4 24 -4 39 -1 14 4 42 4 62 1 19 -4 44 -4 54 0 11 4
34 4 52 -1 18 -4 35 -3 38 1 3 4 19 5 37 1 18 -4 52 -4 76 -1 23 4 42 4 42 1
0 -7 138 -4 157 3 7 3 13 2 13 -3 0 -5 18 -5 40 -1 22 4 40 4 40 0 0 -4 18 -4
40 0 22 4 40 4 40 0 0 -4 18 -4 40 0 22 4 40 4 40 0 0 -4 18 -4 40 0 22 4 40
4 40 0 0 -4 18 -4 40 0 22 4 40 4 40 0 0 -4 18 -4 40 0 23 4 40 3 40 -2 0 -5
4 -6 10 -3 8 5 67 7 163 4 9 0 42 1 72 1 30 1 59 -1 65 -5 5 -3 10 -2 10 3 0
5 20 6 45 2 25 -4 47 -5 50 -2 6 7 94 6 101 0 3 -3 19 -2 37 2 18 4 41 4 52 0
10 -4 36 -3 57 0 21 4 38 4 38 0 0 -4 18 -4 40 0 22 4 42 5 45 2 3 -3 42 -4
87 -3 46 1 90 2 98 2 47 -2 103 0 110 4 5 3 11 1 14 -4 3 -5 21 -5 41 -1 19 4
37 4 40 0 3 -4 20 -4 39 0 19 4 37 5 40 2 7 -7 164 -4 176 3 6 3 10 2 10 -3 0
-5 17 -6 40 -2 22 4 40 4 40 0 0 -4 18 -4 40 0 22 4 40 4 40 0 0 -4 18 -4 40
0 22 4 40 4 40 0 0 -4 18 -4 40 0 22 4 40 4 40 0 0 -4 18 -4 40 0 22 4 40 4
40 0 0 -4 18 -4 40 0 22 4 40 4 40 0 0 -4 18 -4 41 0 22 4 56 4 75 0 19 -4 36
-4 39 0 3 4 20 5 37 1 18 -4 47 -4 65 -1 17 4 37 4 43 0 7 -4 27 -4 45 0 18 4
38 4 45 0 7 -4 24 -4 39 -1 14 4 42 4 62 1 19 -4 44 -4 54 0 11 4 34 4 52 -1
18 -4 35 -3 38 1 3 4 20 5 37 1 18 -4 47 -4 65 -1 17 4 37 4 43 0 7 -4 27 -4
45 0 18 4 38 4 45 0 7 -4 24 -4 39 -1 14 4 42 4 62 1 19 -4 44 -4 54 0 11 4
34 4 52 -1 18 -4 35 -3 38 1 3 4 19 5 37 1 18 -4 52 -4 76 -1 23 4 42 4 42 1
0 -7 138 -4 157 3 7 3 13 2 13 -3 0 -5 18 -5 40 -1 22 4 40 4 40 0 0 -4 18 -4
40 0 22 4 40 4 40 0 0 -4 18 -4 40 0 22 4 40 4 40 0 0 -4 18 -4 40 0 22 4 40
4 40 0 0 -4 18 -4 40 0 22 4 40 4 40 0 0 -4 18 -4 40 0 23 4 40 3 40 -2 0 -5
4 -6 10 -3 8 5 67 7 163 4 9 0 42 1 72 1 30 1 59 -1 65 -5 5 -3 10 -2 10 3 0
5 19 6 43 2 24 -3 52 -3 62 0 10 3 37 4 59 0 23 -3 60 -3 84 0 23 4 44 4 47 2
6 -6 95 -8 95 -2 0 3 30 5 68 6 67 0 144 8 192 19 14 3 36 7 50 10 75 14 349
128 370 154 3 3 30 22 60 42 211 140 387 371 478 629 16 47 30 88 31 93 0 4 1
8 2 10 2 6 8 35 14 67 3 19 9 49 13 65 4 17 7 1533 9 3370 2 2904 0 3350 -13
3415 -8 41 -16 85 -19 97 -2 13 -6 26 -9 31 -3 5 -7 22 -10 38 -7 35 -92 241
-106 254 -3 3 -11 15 -17 28 -7 12 -19 32 -25 45 -7 12 -15 24 -19 27 -3 3
-18 23 -34 45 -59 80 -189 212 -251 255 -127 88 -253 156 -329 179 -22 7 -49
16 -60 21 -11 5 -33 12 -50 16 -16 4 -37 9 -45 11 -8 2 -31 6 -50 9 -19 3 -51
9 -70 13 -19 4 -63 7 -97 6 -35 0 -63 3 -63 6 0 4 -16 3 -34 -1 -19 -4 -37 -5
-40 -2 -4 3 -43 4 -88 3 -46 -1 -90 -2 -98 -2 -47 2 -103 0 -110 -4 -5 -3 -11
-1 -14 4 -3 5 -21 5 -41 1 -19 -4 -37 -4 -40 0 -3 4 -20 4 -39 0 -19 -4 -37
-5 -40 -2 -7 7 -164 4 -176 -3 -6 -3 -10 -2 -10 3 0 5 -17 6 -40 2 -22 -4 -40
-4 -40 0 0 4 -18 4 -40 0 -22 -4 -40 -4 -40 0 0 4 -18 4 -40 0 -22 -4 -40 -4
-40 0 0 4 -18 4 -40 0 -22 -4 -40 -4 -40 0 0 4 -18 4 -40 0 -22 -4 -40 -4 -40
0 0 4 -18 4 -40 0 -22 -4 -40 -4 -40 0 0 4 -18 4 -41 0 -22 -4 -56 -4 -75 0
-19 4 -36 4 -39 0 -3 -4 -20 -5 -37 -1 -18 4 -47 4 -65 1 -17 -4 -37 -4 -43 0
-7 4 -27 4 -45 0 -18 -4 -38 -4 -45 0 -7 4 -24 4 -39 1 -14 -4 -42 -4 -62 -1
-19 4 -44 4 -54 0 -11 -4 -34 -4 -52 1 -18 4 -35 3 -38 -1 -3 -4 -20 -5 -37
-1 -18 4 -47 4 -65 1 -17 -4 -37 -4 -43 0 -7 4 -27 4 -45 0 -18 -4 -38 -4 -45
0 -7 4 -24 4 -39 1 -14 -4 -42 -4 -62 -1 -19 4 -44 4 -54 0 -11 -4 -34 -4 -52
1 -18 4 -35 3 -38 -1 -3 -4 -19 -5 -37 -1 -18 4 -52 4 -75 1 -24 -4 -43 -4
-43 -1 0 7 -138 4 -157 -3 -7 -3 -13 -2 -13 3 0 5 -18 5 -40 1 -22 -4 -40 -4
-40 0 0 4 -18 4 -40 0 -22 -4 -40 -4 -40 0 0 4 -18 4 -40 0 -22 -4 -40 -4 -40
0 0 4 -18 4 -40 0 -22 -4 -40 -4 -40 0 0 4 -18 4 -40 0 -22 -4 -40 -4 -40 0 0
4 -18 4 -40 0 -23 -4 -40 -3 -40 2 0 5 -4 6 -10 3 -8 -5 -67 -7 -162 -4 -10 0
-43 -1 -73 -1 -30 -1 -59 1 -65 5 -5 3 -10 2 -10 -3 0 -5 -20 -6 -45 -2 -25 4
-47 5 -50 2 -6 -7 -94 -6 -101 0 -3 3 -19 2 -37 -2 -18 -4 -41 -4 -52 0 -10 4
-36 3 -57 0 -21 -4 -38 -4 -38 0 0 4 -18 4 -40 0 -22 -4 -42 -5 -45 -2 -3 3
-42 4 -87 3 -46 -1 -90 -2 -98 -2 -47 2 -103 0 -110 -4 -5 -3 -11 -1 -14 4 -3
5 -21 5 -41 1 -19 -4 -37 -4 -40 0 -3 4 -20 4 -39 0 -19 -4 -37 -5 -40 -2 -7
7 -164 4 -176 -3 -6 -3 -10 -2 -10 3 0 5 -17 6 -40 2 -22 -4 -40 -4 -40 0 0 4
-18 4 -40 0 -22 -4 -40 -4 -40 0 0 4 -18 4 -40 0 -22 -4 -40 -4 -40 0 0 4 -18
4 -40 0 -22 -4 -40 -4 -40 0 0 4 -18 4 -40 0 -22 -4 -40 -4 -40 0 0 4 -18 4
-40 0 -22 -4 -40 -4 -40 0 0 4 -18 4 -41 0 -22 -4 -56 -4 -75 0 -19 4 -36 4
-39 0 -3 -4 -20 -5 -37 -1 -18 4 -47 4 -65 1 -17 -4 -37 -4 -43 0 -7 4 -27 4
-45 0 -18 -4 -38 -4 -45 0 -7 4 -24 4 -39 1 -14 -4 -42 -4 -62 -1 -19 4 -44 4
-54 0 -11 -4 -34 -4 -52 1 -18 4 -35 3 -38 -1 -3 -4 -20 -5 -37 -1 -18 4 -47
4 -65 1 -17 -4 -37 -4 -43 0 -7 4 -27 4 -45 0 -18 -4 -38 -4 -45 0 -7 4 -24 4
-39 1 -14 -4 -42 -4 -62 -1 -19 4 -44 4 -54 0 -11 -4 -34 -4 -52 1 -18 4 -35
3 -38 -1 -3 -4 -19 -5 -37 -1 -18 4 -52 4 -75 1 -23 -4 -44 -3 -45 2 -2 5 -6
7 -8 5z m1616 -1286 c4 8 9 8 17 0 7 -7 16 -7 29 0 12 6 18 6 18 0 0 -7 8 -7
23 -2 12 5 31 5 42 1 11 -4 25 -3 32 2 7 6 14 5 18 -2 3 -6 11 -8 16 -4 15 9
69 11 75 3 2 -4 16 -4 32 0 15 4 39 4 55 0 16 -5 27 -4 27 2 0 7 6 7 17 0 11
-6 24 -6 35 0 10 6 19 5 23 -1 4 -7 12 -7 25 0 11 6 21 6 24 1 4 -5 18 -6 34
-2 15 4 39 4 55 0 16 -5 27 -4 27 2 0 7 6 7 17 0 11 -6 24 -6 35 0 10 6 19 5
23 -1 4 -7 12 -7 25 0 12 6 21 7 25 0 4 -6 15 -6 30 0 16 6 25 6 25 0 0 -6 9
-6 25 0 16 6 25 6 25 0 0 -5 9 -6 22 -1 13 4 35 5 50 0 16 -4 30 -3 34 2 3 6
12 6 22 0 10 -6 23 -6 34 0 10 6 19 5 23 -1 4 -6 15 -6 30 0 16 6 25 6 25 0 0
-5 9 -6 22 -1 13 4 35 5 50 0 16 -4 30 -3 33 2 4 5 13 5 23 0 11 -6 24 -6 34
0 10 6 19 6 23 0 4 -7 15 -7 30 -1 14 5 25 6 25 2 0 -4 9 -8 20 -8 11 0 20 4
20 8 0 4 11 4 23 -1 13 -5 30 -6 37 -1 7 5 23 4 36 0 12 -5 24 -6 27 -4 3 3 6
-23 7 -58 2 -79 2 -79 0 -103 -1 -17 -2 -259 -1 -290 1 -48 2 -182 0 -190 -1
-5 -1 -14 0 -19 1 -5 1 -66 1 -135 -1 -69 -1 -130 -1 -136 1 -48 2 -182 0
-190 -1 -5 -1 -14 0 -19 1 -5 1 -63 1 -130 -1 -67 -1 -128 -1 -136 0 -8 0 -52
0 -97 0 -69 3 -83 19 -92 10 -5 24 -6 32 -1 7 4 23 5 34 0 12 -4 30 -4 41 0
11 4 32 4 46 0 15 -4 32 -4 39 0 7 5 23 4 36 0 12 -5 25 -6 28 -3 8 8 102 7
116 -2 5 -3 10 -2 10 4 0 6 11 6 30 1 17 -5 30 -5 30 0 0 5 13 5 30 0 17 -5
30 -5 30 0 0 5 13 5 30 0 17 -5 30 -5 30 0 0 5 13 5 30 0 17 -5 30 -5 30 0 0
5 13 5 30 0 17 -5 30 -5 30 0 0 5 13 5 30 0 17 -5 30 -5 30 0 0 5 13 5 30 0
17 -5 30 -5 30 0 0 5 13 5 30 0 19 -5 30 -5 30 1 0 6 5 7 10 4 14 -8 118 -10
126 -2 3 3 16 2 28 -3 13 -4 28 -5 35 0 7 4 28 4 46 0 18 -4 39 -4 46 0 7 5
22 5 34 0 12 -5 27 -5 34 0 7 4 28 4 46 0 18 -4 39 -4 46 0 7 5 22 5 34 0 12
-5 28 -5 35 0 7 4 24 4 39 0 14 -4 36 -4 47 0 11 5 27 4 34 0 7 -5 23 -4 36 0
15 6 26 5 32 -3 13 -16 21 -66 12 -72 -4 -3 -4 -20 0 -39 4 -19 4 -40 0 -46
-4 -7 -4 -25 0 -40 4 -15 4 -33 0 -40 -4 -6 -4 -27 0 -46 4 -19 4 -34 0 -34
-5 0 -5 -12 -1 -27 5 -16 5 -37 1 -48 -4 -11 -5 -25 -3 -32 7 -19 9 -213 2
-213 -4 0 -3 -15 1 -34 4 -19 4 -39 0 -46 -4 -7 -4 -27 0 -46 4 -19 4 -34 0
-34 -4 0 -4 -18 0 -40 4 -22 4 -40 0 -40 -4 0 -4 -16 0 -35 4 -19 4 -37 0 -40
-5 -3 -5 -18 -1 -33 5 -15 5 -36 1 -47 -4 -11 -5 -25 -3 -32 7 -19 9 -213 2
-213 -4 0 -3 -15 1 -34 4 -19 4 -39 0 -46 -4 -6 -4 -26 0 -43 3 -18 3 -47 -1
-65 -4 -17 -4 -34 0 -37 4 -2 6 -24 5 -49 l-2 -44 75 -4 c41 -2 76 -1 78 2 2
3 37 3 79 0 42 -3 76 -3 76 0 0 6 438 3 463 -4 9 -2 17 -1 17 2 0 8 434 6 463
-2 9 -2 17 -1 17 2 0 8 284 5 317 -3 19 -4 21 -9 13 -30 -6 -15 -6 -27 0 -30
6 -3 6 -15 0 -30 -5 -14 -5 -27 0 -30 5 -3 5 -18 0 -35 -5 -16 -5 -32 0 -35 5
-3 5 -19 0 -35 -5 -18 -5 -32 1 -35 5 -4 5 -13 0 -24 -6 -10 -6 -23 -1 -31 5
-8 5 -21 0 -30 -5 -9 -5 -22 0 -30 4 -7 4 -24 0 -36 -6 -14 -5 -26 0 -29 5 -3
5 -18 0 -35 -5 -16 -5 -32 0 -35 5 -3 5 -19 0 -35 -5 -18 -5 -32 1 -36 5 -3 7
-10 3 -15 -7 -13 -11 -99 -4 -99 3 0 4 -15 3 -32 -2 -38 -3 -85 -3 -110 0 -10
0 -25 0 -33 0 -8 0 -22 0 -30 0 -8 0 -22 0 -30 0 -8 0 -22 0 -30 0 -8 0 -22 0
-30 0 -8 0 -22 0 -30 0 -8 0 -22 0 -30 0 -8 0 -22 0 -30 0 -8 0 -22 0 -30 0
-8 0 -22 0 -30 0 -8 0 -22 0 -30 0 -8 0 -22 0 -30 0 -8 0 -22 0 -30 0 -8 0
-22 0 -30 0 -8 0 -22 0 -30 0 -8 0 -22 0 -30 0 -8 0 -22 0 -30 0 -8 0 -22 0
-30 0 -8 0 -22 0 -30 0 -8 0 -22 0 -30 0 -8 0 -21 0 -27 -1 -7 1 -32 2 -56 2
-23 -1 -42 -5 -42 -5 0 -5 -5 -1 -11 9 -16 -17 -29 -36 -19 -9 5 -22 5 -30 0
-7 -4 -23 -4 -36 0 -12 5 -25 6 -28 3 -8 -8 -76 -9 -76 -1 0 4 -13 3 -30 -2
-17 -5 -30 -5 -30 0 0 5 -13 5 -30 0 -17 -5 -30 -5 -30 0 0 5 -13 5 -29 0 -15
-4 -34 -4 -42 0 -7 5 -20 5 -29 0 -9 -5 -22 -5 -30 0 -8 5 -21 5 -30 0 -9 -5
-22 -5 -30 0 -8 5 -21 5 -31 0 -9 -5 -19 -7 -22 -3 -5 5 -38 5 -129 2 -7 0
-22 0 -33 1 -11 0 -27 0 -35 -1 -8 -1 -28 -1 -45 0 -16 1 -37 1 -45 1 -8 -1
-24 -1 -35 -1 -11 1 -43 1 -72 0 -29 0 -57 2 -63 6 -5 3 -10 2 -10 -4 0 -6
-11 -6 -30 -1 -17 5 -30 5 -30 0 0 -5 -13 -5 -30 0 -17 5 -30 5 -30 0 0 -5
-13 -5 -30 0 -17 5 -30 5 -30 0 0 -5 -13 -5 -30 0 -17 5 -30 5 -30 0 0 -5 -13
-5 -30 0 -17 5 -30 5 -30 0 0 -5 -13 -5 -30 0 -17 5 -30 5 -30 0 0 -5 -13 -5
-30 0 -17 5 -30 5 -30 0 0 -5 -6 -7 -12 -5 -27 10 -79 12 -84 3 -3 -5 -12 -4
-20 3 -8 6 -14 8 -15 3 -1 -5 -4 2 -8 16 -4 14 -4 37 0 51 4 15 3 32 -1 39 -5
7 -5 23 0 34 4 12 4 30 0 41 -4 11 -4 29 0 40 4 11 4 34 0 51 -4 18 -4 37 0
44 4 7 4 27 0 46 -4 19 -4 34 0 34 4 0 4 18 0 40 -4 22 -4 40 0 40 4 0 4 15 0
34 -4 19 -4 39 0 46 4 7 4 27 0 46 -4 19 -4 34 0 34 4 0 4 18 0 40 -4 22 -4
40 0 40 4 0 4 18 0 40 -4 22 -4 43 1 45 4 3 4 18 -1 34 -4 15 -4 34 0 41 4 6
4 27 0 46 -4 19 -4 36 0 39 4 3 4 21 0 40 -4 19 -4 35 0 35 4 0 4 18 0 40 -4
22 -4 40 0 40 4 0 4 15 0 34 -4 19 -4 39 0 46 4 7 4 27 0 46 -4 19 -4 34 0 34
4 0 4 18 0 40 -4 22 -4 40 0 40 4 0 4 18 0 40 -4 24 -3 43 2 46 6 4 6 10 0 16
-5 5 -6 27 -2 49 4 21 4 39 0 39 -5 0 -6 8 -3 19 9 34 16 33 -260 31 -103 0
-192 2 -197 5 -6 3 -10 3 -10 -2 0 -8 -430 -8 -462 1 -10 2 -18 1 -18 -2 0 -4
-87 -6 -192 -5 -180 2 -232 2 -381 2 -32 0 -63 3 -68 7 -5 3 -9 22 -9 42 1 20
1 127 1 237 0 110 0 207 0 215 0 67 0 267 0 275 -2 87 -2 187 1 190 2 2 1 32
-2 67 -3 35 -3 90 0 123 3 33 3 76 0 95 -3 19 -3 53 0 75 3 22 3 56 0 75 -3
19 -3 53 0 75 11 88 -5 131 -47 126 -13 -2 -43 -2 -65 -1 -7 0 -32 -1 -56 -2
-23 -2 -42 0 -42 4 0 4 -13 3 -30 -2 -17 -5 -30 -5 -30 0 0 5 -13 5 -30 0 -17
-5 -32 -5 -35 0 -3 5 -15 6 -29 0 -12 -4 -29 -4 -36 0 -8 5 -21 5 -30 0 -9 -5
-22 -5 -30 0 -8 5 -21 5 -30 0 -9 -5 -22 -5 -30 0 -8 5 -21 5 -31 0 -9 -5 -19
-6 -23 -3 -3 3 -29 5 -58 4 -29 -1 -57 -2 -63 -2 -5 0 -19 0 -30 1 -11 0 -27
0 -35 0 -8 -1 -28 -1 -45 -1 -16 1 -37 1 -45 0 -8 0 -24 0 -35 0 -11 1 -46 1
-77 0 -32 0 -62 2 -68 6 -5 3 -10 2 -10 -4 0 -6 -11 -6 -30 -1 -17 5 -30 5
-30 0 0 -5 -13 -5 -30 0 -17 5 -30 5 -30 0 0 -5 -13 -5 -30 0 -17 5 -30 5 -30
0 0 -5 -13 -5 -30 0 -17 5 -30 5 -30 0 0 -5 -13 -5 -30 0 -17 5 -30 5 -30 0 0
-5 -13 -5 -30 0 -17 5 -30 5 -30 0 0 -5 -13 -5 -30 0 -17 5 -30 5 -30 0 0 -5
-12 -5 -27 -2 -35 9 -55 9 -70 -1 -6 -4 -14 -3 -18 3 -4 6 -10 8 -15 5 -10 -6
-18 47 -9 71 3 11 3 28 -1 40 -5 11 -5 27 0 34 4 7 4 25 0 40 -4 15 -4 33 0
40 4 6 4 27 0 46 -4 19 -4 36 0 39 5 3 5 18 1 33 -5 15 -5 36 -1 47 4 11 5 25
3 32 -7 19 -9 213 -2 213 4 0 3 15 -1 34 -4 19 -4 39 0 46 4 7 4 27 0 46 -4
19 -4 34 0 34 4 0 4 18 0 40 -4 22 -4 40 0 40 4 0 5 15 1 33 -4 17 -6 41 -5
52 3 27 5 67 3 85 0 8 0 26 0 40 1 14 1 32 0 40 0 8 0 26 0 40 1 14 1 32 1 40
-1 8 0 38 1 65 0 28 1 70 0 95 0 25 -1 53 -1 63 0 9 0 28 0 42 0 14 1 31 1 38
1 6 0 17 -1 22 -12 49 22 81 67 64 14 -5 25 -4 29 2z m3177 -6 c15 -1 27 3 27
7 0 4 11 3 25 -2 15 -6 26 -6 30 0 4 6 13 7 24 1 9 -5 23 -6 31 -1 7 4 24 4
37 -1 14 -5 23 -5 23 1 0 6 9 6 23 1 13 -5 30 -5 39 0 10 6 19 6 23 0 3 -6 15
-7 29 -1 12 4 29 4 36 0 8 -5 22 -4 31 1 11 6 20 5 24 -1 4 -7 12 -7 25 0 11
6 21 6 24 1 4 -5 18 -6 34 -2 15 4 39 4 55 0 16 -5 27 -4 27 2 0 7 6 7 17 0
11 -6 24 -6 35 0 10 6 19 5 23 -1 4 -7 12 -7 25 0 10 6 21 7 23 3 6 -9 59 -9
73 0 6 3 16 2 24 -3 9 -5 19 -5 26 1 7 6 15 6 18 1 3 -5 26 -6 51 -2 25 4 48
4 50 -1 3 -4 17 -4 33 0 15 4 39 4 55 0 16 -5 27 -4 27 2 0 7 6 7 17 0 11 -6
24 -6 35 0 10 6 19 5 23 -1 4 -7 12 -7 25 0 10 6 21 7 23 3 6 -9 59 -9 73 0 6
3 16 2 24 -3 9 -5 19 -5 26 1 8 7 14 7 18 0 5 -7 15 -7 31 -1 16 6 25 6 25 0
0 -6 9 -6 25 0 14 5 25 6 25 2 0 -4 14 -7 30 -7 17 0 30 3 30 7 0 4 13 2 29
-3 26 -9 28 -13 21 -40 -5 -16 -5 -29 0 -29 5 0 5 -13 0 -30 -5 -16 -6 -30 -2
-30 8 0 7 -202 -1 -223 -3 -7 -1 -20 3 -27 5 -7 4 -24 0 -36 -6 -14 -5 -26 0
-29 5 -3 5 -18 0 -35 -5 -16 -5 -32 0 -35 5 -3 5 -19 0 -35 -5 -18 -5 -32 1
-35 5 -4 5 -13 0 -24 -6 -10 -6 -23 -1 -31 5 -8 5 -21 0 -30 -5 -9 -5 -22 0
-30 4 -7 4 -24 0 -36 -6 -14 -5 -26 0 -29 5 -3 5 -18 0 -35 -5 -16 -5 -32 0
-35 5 -3 5 -19 0 -35 -5 -18 -5 -32 1 -35 5 -4 5 -13 0 -24 -6 -10 -6 -23 -1
-31 5 -8 5 -21 0 -30 -5 -9 -5 -22 0 -30 4 -7 4 -24 0 -36 -6 -14 -5 -26 0
-29 5 -3 5 -18 0 -35 -5 -16 -5 -32 0 -35 5 -3 5 -19 0 -35 -5 -18 -5 -32 1
-36 5 -3 7 -10 3 -15 -8 -13 -11 -99 -4 -99 6 0 2 -109 -5 -127 -2 -7 0 -13 5
-13 5 0 5 -13 0 -30 -5 -16 -5 -30 -1 -30 4 0 6 -13 3 -30 -3 -21 -10 -30 -23
-31 -63 -3 -90 -2 -95 4 -3 3 -16 2 -28 -3 -13 -4 -29 -5 -36 0 -7 5 -24 4
-36 0 -14 -6 -26 -5 -29 0 -3 5 -18 5 -35 0 -17 -5 -30 -5 -30 0 0 5 -13 5
-30 0 -17 -5 -30 -5 -30 0 0 5 -13 5 -30 0 -16 -5 -30 -5 -30 0 0 4 -15 5 -32
1 -18 -4 -48 -4 -65 0 -18 3 -33 3 -33 -2 0 -4 -12 -4 -27 -1 -16 4 -41 6 -58
5 -16 -2 -40 -3 -52 -3 -28 0 -49 0 -65 -1 -7 0 -26 0 -43 0 -16 1 -37 1 -45
0 -8 0 -24 0 -35 0 -11 1 -46 1 -77 0 -32 0 -62 2 -68 6 -5 3 -10 2 -10 -4 0
-6 -11 -6 -30 -1 -17 5 -30 5 -30 0 0 -5 -13 -5 -30 0 -17 5 -30 5 -30 0 0 -5
-13 -5 -30 0 -17 5 -30 5 -30 0 0 -5 -13 -5 -30 0 -17 5 -30 5 -30 0 0 -5 -13
-5 -30 0 -17 5 -30 5 -30 0 0 -5 -13 -5 -30 0 -17 5 -30 5 -30 0 0 -5 -13 -5
-30 0 -17 5 -30 5 -30 0 0 -5 -12 -5 -27 -2 -35 9 -55 9 -70 -1 -6 -4 -14 -3
-18 3 -4 6 -11 8 -16 5 -8 -6 -15 36 -9 60 1 6 2 20 1 33 -2 24 -2 45 0 65 1
12 0 33 -2 97 -1 41 -1 75 0 110 1 14 1 32 0 40 0 8 0 26 0 40 1 14 1 32 0 40
0 8 0 27 0 43 1 15 1 39 2 55 0 15 2 36 3 47 1 11 -1 32 -5 47 -4 15 -4 30 1
33 4 3 4 21 0 40 -4 19 -4 37 0 40 4 2 4 23 0 45 -4 22 -4 43 0 45 4 3 4 21 0
40 -4 19 -4 35 0 35 4 0 4 16 0 35 -4 19 -4 37 0 40 4 2 4 23 0 45 -4 22 -4
43 0 45 4 3 4 21 0 40 -4 19 -4 37 0 40 5 3 5 18 1 33 -4 15 -6 36 -5 47 3 26
5 66 3 85 0 8 0 26 0 40 1 14 1 32 0 40 0 8 0 27 0 43 1 15 1 38 1 52 0 13 1
30 2 37 3 15 30 28 38 19 3 -3 17 -6 33 -6z m-4757 -1598 c3 -3 16 -2 28 3 13
4 29 4 36 0 8 -5 21 -5 30 0 9 5 22 5 29 0 8 -4 27 -4 42 0 16 5 29 5 29 0 0
-5 13 -5 30 0 17 5 30 5 30 0 0 -5 13 -5 30 0 17 5 30 5 30 0 0 -5 13 -5 30 0
17 5 30 6 30 2 0 -4 16 -7 35 -7 19 0 35 3 35 7 0 3 12 3 27 -1 16 -4 44 -4
65 -1 20 4 42 4 49 -1 7 -4 20 -4 29 1 9 5 22 5 30 0 8 -5 21 -5 30 0 9 5 22
5 30 0 8 -5 21 -5 30 0 9 5 22 5 29 0 8 -4 27 -4 42 0 16 5 29 5 29 0 0 -5 13
-5 30 0 17 5 30 5 30 0 0 -5 13 -5 30 0 17 5 30 5 30 0 0 -5 13 -5 30 0 17 5
30 6 30 2 0 -4 16 -7 35 -7 19 0 35 4 35 8 0 5 5 5 10 2 14 -8 118 -10 126 -2
3 3 16 2 28 -3 13 -4 29 -5 36 0 7 4 24 4 39 0 14 -4 36 -4 47 0 11 5 27 4 34
0 7 -5 23 -4 36 0 15 6 26 5 32 -3 13 -16 21 -66 12 -72 -4 -3 -4 -20 0 -39 4
-19 4 -40 0 -46 -4 -7 -4 -25 0 -40 4 -15 4 -33 0 -40 -4 -6 -4 -27 0 -46 4
-19 4 -34 0 -34 -5 0 -5 -12 -1 -27 5 -16 5 -37 1 -48 -4 -11 -5 -25 -3 -32 7
-19 9 -213 2 -213 -4 0 -3 -15 1 -34 4 -19 4 -39 0 -46 -4 -7 -4 -27 0 -46 4
-19 4 -34 0 -34 -4 0 -4 -18 0 -40 4 -22 4 -40 0 -40 -4 0 -5 -15 -1 -32 4
-18 6 -42 5 -53 -3 -27 -5 -67 -3 -85 0 -8 0 -26 0 -40 -1 -14 -1 -32 0 -40 0
-8 0 -27 0 -42 -1 -16 -1 -40 -2 -55 0 -16 -2 -37 -3 -48 -1 -11 1 -32 5 -47
4 -15 4 -30 -1 -33 -4 -3 -4 -21 0 -40 4 -19 4 -37 0 -40 -4 -2 -4 -23 0 -45
4 -22 4 -43 -1 -46 -4 -2 -6 -10 -4 -17 2 -7 6 -23 9 -37 5 -25 6 -25 81 -20
42 3 79 2 82 -3 2 -4 8 -5 12 -3 7 5 107 7 151 5 8 -1 44 -1 80 0 36 0 72 0
80 0 8 -1 44 -1 80 0 36 0 72 0 80 0 8 -1 44 -1 80 0 36 0 72 0 80 0 8 -1 44
-1 80 0 36 0 72 0 80 0 8 -1 44 -1 80 0 36 0 74 1 85 0 20 0 231 -1 250 0 133
3 196 2 204 -3 6 -4 11 -63 11 -144 2 -161 2 -152 0 -177 -1 -11 -1 -77 0
-146 0 -70 0 -130 -1 -135 -1 -5 -1 -13 0 -19 2 -8 1 -113 0 -190 0 -5 0 -67
1 -136 0 -70 0 -130 -1 -135 -1 -5 -1 -13 0 -19 1 -5 2 -46 1 -90 -1 -153 1
-238 6 -247 3 -4 2 -8 -3 -8 -8 0 -6 -96 2 -137 4 -19 9 -20 34 -13 15 4 34 4
41 0 7 -5 23 -5 34 0 12 4 30 4 41 0 11 -4 29 -4 40 0 11 4 29 4 40 0 11 -4
24 -5 29 -2 13 7 113 5 126 -3 5 -3 10 -2 10 4 0 6 11 6 30 1 17 -5 30 -5 30
0 0 5 13 5 30 0 17 -5 30 -5 30 0 0 5 13 5 30 0 17 -5 30 -5 30 0 0 5 13 5 30
0 17 -5 30 -5 30 0 0 5 13 5 30 0 17 -5 30 -5 30 0 0 5 13 5 30 0 17 -5 30 -5
30 0 0 5 13 5 30 0 17 -5 30 -5 30 0 0 5 13 5 30 0 17 -5 30 -5 30 0 0 5 12 5
28 1 29 -7 90 -6 99 3 3 2 15 1 27 -4 13 -4 29 -5 36 0 7 4 24 4 39 0 14 -4
35 -4 46 0 11 4 29 4 41 0 11 -5 27 -5 34 0 7 4 24 4 39 0 14 -4 35 -4 46 0
11 4 29 4 41 0 11 -5 27 -5 34 0 7 4 24 4 39 0 14 -4 36 -4 47 0 11 5 27 4 34
0 7 -5 23 -4 36 0 29 12 51 -6 56 -47 3 -18 1 -33 -2 -33 -4 0 -4 -18 0 -40 4
-22 4 -43 -1 -45 -4 -3 -4 -18 1 -34 4 -15 4 -34 0 -41 -4 -6 -4 -26 0 -44 4
-17 5 -40 4 -51 -4 -21 -5 -49 -3 -75 0 -8 0 -26 0 -40 -1 -14 -1 -32 0 -40 0
-8 0 -27 0 -43 -1 -15 -1 -39 -2 -55 0 -15 -2 -36 -3 -47 -1 -11 1 -32 5 -47
4 -15 4 -30 -1 -33 -4 -3 -4 -21 0 -40 4 -19 4 -37 0 -40 -4 -2 -4 -23 0 -45
4 -22 4 -43 0 -45 -4 -3 -4 -21 0 -40 4 -19 4 -35 0 -35 -4 0 -4 -16 0 -35 4
-19 4 -37 0 -40 -4 -2 -4 -23 0 -45 4 -22 4 -43 0 -45 -4 -3 -4 -21 0 -40 4
-19 4 -37 0 -40 -5 -3 -5 -18 -1 -33 4 -15 6 -36 5 -47 -3 -26 -5 -66 -3 -85
0 -8 0 -26 0 -40 -1 -14 -1 -32 0 -40 0 -8 0 -26 0 -40 -1 -14 -1 -32 0 -40 0
-8 -1 -28 -2 -43 -3 -24 -7 -28 -26 -24 -13 2 -26 0 -29 -4 -3 -5 -14 -5 -24
1 -13 7 -21 7 -25 0 -4 -7 -12 -7 -25 0 -13 7 -21 7 -25 0 -4 -7 -12 -7 -25 0
-11 6 -21 6 -25 1 -3 -6 -17 -6 -35 -1 -18 5 -30 5 -30 0 0 -6 -10 -6 -25 0
-17 6 -25 6 -25 -1 0 -7 -6 -7 -17 0 -11 6 -24 6 -35 0 -12 -6 -18 -6 -18 0 0
7 -9 7 -22 2 -13 -4 -35 -5 -50 0 -16 4 -30 3 -34 -2 -3 -6 -12 -6 -22 0 -10
6 -23 6 -34 0 -10 -6 -19 -5 -23 1 -4 6 -15 6 -30 0 -16 -6 -25 -6 -25 0 0 5
-9 6 -22 1 -13 -4 -35 -5 -50 0 -16 4 -30 3 -34 -2 -3 -6 -12 -6 -22 0 -10 6
-23 6 -34 0 -10 -6 -19 -5 -23 1 -4 6 -15 6 -30 0 -16 -6 -25 -6 -25 0 0 5 -9
6 -22 1 -13 -4 -35 -5 -50 0 -16 4 -30 3 -34 -2 -3 -6 -12 -6 -22 0 -9 5 -23
6 -32 1 -9 -5 -22 -5 -30 0 -8 5 -21 5 -31 -1 -11 -6 -20 -5 -24 1 -4 7 -12 7
-25 0 -11 -6 -21 -6 -24 -1 -4 5 -18 6 -34 2 -15 -4 -39 -4 -54 0 -17 5 -28 4
-28 -2 0 -7 -6 -7 -17 0 -11 6 -24 6 -35 0 -10 -6 -19 -5 -23 1 -4 7 -12 7
-24 0 -10 -5 -21 -6 -25 -3 -9 9 -67 9 -73 0 -2 -4 -14 -2 -26 4 -15 9 -22 9
-25 1 -2 -7 -11 -8 -25 -3 -12 4 -27 6 -34 4 -13 -5 -21 133 -13 232 3 33 3
97 0 143 -3 46 -3 89 0 97 3 8 3 49 0 92 -3 43 -3 109 0 146 3 38 3 70 1 72
-2 2 -3 41 -2 87 2 91 1 199 -2 326 -1 45 0 82 3 82 3 0 3 31 0 69 -3 37 -3
83 0 102 4 29 -4 167 -8 147 -1 -4 -14 -3 -28 2 -14 6 -23 7 -21 2 3 -4 -12
-7 -34 -7 -21 0 -39 4 -39 8 0 4 -8 3 -18 -2 -10 -5 -24 -6 -32 -1 -8 5 -21 5
-30 0 -9 -5 -22 -5 -29 0 -8 4 -27 4 -42 0 -16 -5 -29 -5 -29 0 0 5 -13 5 -30
0 -17 -5 -30 -5 -30 0 0 5 -13 5 -30 0 -17 -5 -30 -5 -30 0 0 5 -13 5 -30 0
-16 -5 -30 -6 -30 -2 0 4 -16 7 -35 7 -19 0 -35 -4 -35 -8 0 -5 -5 -5 -10 -2
-9 6 -61 7 -130 4 -8 0 -24 0 -35 1 -11 0 -27 0 -35 -1 -8 -1 -28 -1 -45 0
-16 1 -37 1 -45 1 -8 -1 -24 -1 -35 -1 -11 1 -43 1 -72 0 -29 0 -57 2 -63 6
-5 3 -10 2 -10 -4 0 -6 -11 -6 -30 -1 -17 5 -30 5 -30 0 0 -5 -13 -5 -30 0
-17 5 -30 5 -30 0 0 -5 -13 -5 -30 0 -17 5 -30 5 -30 0 0 -5 -13 -5 -30 0 -17
5 -30 5 -30 0 0 -5 -13 -5 -30 0 -17 5 -30 5 -30 0 0 -5 -13 -5 -30 0 -17 5
-30 5 -30 0 0 -5 -13 -5 -30 0 -17 5 -30 5 -30 0 0 -5 -6 -7 -12 -5 -27 10
-79 12 -84 3 -3 -5 -12 -4 -20 3 -8 6 -14 8 -15 3 -1 -5 -4 2 -8 16 -4 14 -4
37 0 51 4 15 3 32 -1 39 -5 7 -5 23 0 34 4 12 4 30 0 41 -4 11 -4 29 0 40 4
11 4 34 0 51 -4 18 -4 37 0 44 4 7 4 27 0 46 -4 19 -4 34 0 34 4 0 4 18 0 40
-4 22 -4 40 0 40 4 0 4 15 0 34 -4 19 -4 39 0 46 4 7 4 27 0 46 -4 19 -4 34 0
34 4 0 4 18 0 40 -4 22 -4 40 0 40 4 0 4 18 0 40 -4 22 -4 43 1 45 4 3 4 18
-1 34 -4 15 -4 34 0 41 4 6 4 26 0 44 -4 17 -5 40 -4 51 4 21 5 49 3 75 0 8 0
26 0 40 1 14 1 32 0 40 0 8 0 27 0 43 1 15 1 39 2 55 0 15 2 36 3 47 1 11 -1
32 -5 47 -4 15 -4 30 1 33 4 3 4 21 0 40 -4 19 -4 37 0 40 4 2 4 23 0 45 -4
22 -4 43 1 46 4 2 6 10 4 17 -2 7 -6 23 -9 37 -5 25 -6 25 -81 20 -42 -3 -78
-3 -80 0 -2 3 -33 3 -69 0 -36 -3 -73 -3 -81 0 -8 3 -44 3 -80 0 -36 -3 -72
-3 -80 0 -8 3 -44 3 -80 0 -36 -3 -72 -3 -80 0 -8 3 -44 3 -80 0 -36 -3 -72
-3 -80 0 -8 3 -44 3 -80 0 -36 -3 -72 -3 -80 0 -8 3 -44 3 -80 0 -36 -3 -72
-3 -80 0 -8 3 -44 3 -80 0 -36 -3 -72 -3 -80 0 -8 3 -44 3 -80 0 -36 -3 -72
-3 -80 0 -8 3 -45 3 -81 0 -36 -3 -70 -2 -77 2 -7 4 -8 8 -4 8 4 0 3 8 -2 18
-5 10 -6 24 -1 32 5 8 5 21 0 30 -5 9 -5 22 0 30 5 8 5 21 0 30 -5 9 -5 22 0
30 5 8 5 21 0 30 -5 9 -5 22 0 30 5 8 5 21 0 30 -5 9 -5 22 0 30 5 8 5 21 0
30 -5 9 -5 22 0 30 5 8 5 21 0 29 -4 9 -4 23 0 31 5 9 5 22 0 29 -4 8 -4 27 0
42 5 16 5 29 0 29 -5 0 -5 13 0 30 5 17 6 30 2 30 -8 0 -7 84 1 97 3 5 2 15
-3 23 -4 7 -4 24 0 36 6 14 5 26 0 29 -5 3 -5 18 0 35 5 16 5 32 0 35 -5 3 -5
19 0 35 5 18 5 32 -1 35 -5 4 -5 13 0 24 6 10 6 23 1 31 -5 8 -5 21 0 30 5 9
5 22 0 30 -4 7 -4 24 0 36 6 14 5 26 0 29 -5 3 -5 18 0 35 5 16 5 32 0 35 -5
3 -5 19 0 35 5 18 5 32 -1 36 -5 3 -7 10 -3 15 8 14 10 99 2 99 -4 0 -3 14 2
30 5 17 6 30 2 30 -4 0 -7 16 -7 35 0 19 3 35 7 35 4 0 3 14 -2 30 -5 17 -5
30 0 30 5 0 5 14 0 31 -9 30 -8 31 27 41 20 5 83 2 89 -5z m-41 -3197 c3 5 18
5 35 0 17 -5 30 -6 30 -2 0 4 16 7 35 7 19 0 35 -3 35 -7 0 -4 14 -3 30 2 17
5 30 5 30 0 0 -5 13 -5 30 0 17 5 32 5 35 0 3 -5 15 -6 29 0 12 4 29 4 36 0 8
-5 21 -5 30 0 9 5 22 5 30 0 8 -5 21 -5 30 0 9 5 22 5 30 0 8 -5 21 -5 30 0 9
5 22 5 30 0 7 -4 18 -6 25 -4 20 8 185 10 185 2 0 -4 14 -3 30 2 17 5 30 5 30
0 0 -5 13 -5 30 0 17 5 30 5 30 0 0 -5 13 -5 30 0 17 5 32 5 35 0 3 -5 15 -6
29 0 12 4 29 4 36 0 8 -5 21 -5 30 0 9 5 22 5 30 0 8 -5 21 -5 30 0 9 5 22 5
30 0 8 -5 21 -5 31 0 9 5 19 6 23 3 7 -8 105 -7 113 0 3 3 15 2 27 -3 13 -4
29 -5 36 0 7 4 24 4 39 0 14 -4 36 -4 47 0 11 5 27 4 34 0 7 -5 23 -4 36 0 29
12 51 -6 56 -47 3 -18 1 -33 -2 -33 -4 0 -4 -18 0 -40 4 -22 4 -43 -1 -45 -4
-3 -4 -18 1 -34 4 -15 4 -34 0 -41 -4 -6 -4 -27 0 -46 4 -19 4 -36 0 -39 -4
-3 -4 -21 0 -40 4 -19 4 -35 0 -35 -4 0 -4 -18 0 -40 4 -22 4 -40 0 -40 -4 0
-4 -15 0 -34 4 -19 4 -39 0 -46 -4 -7 -4 -27 0 -46 4 -19 4 -34 0 -34 -4 0 -4
-18 0 -40 4 -22 4 -40 0 -40 -4 0 -4 -18 0 -40 4 -22 4 -43 -1 -45 -4 -3 -4
-18 1 -34 4 -15 4 -34 0 -41 -4 -6 -4 -26 0 -44 4 -17 5 -40 4 -51 -4 -21 -5
-49 -3 -75 0 -8 0 -26 0 -40 -1 -14 -1 -32 0 -40 0 -8 0 -26 0 -40 -1 -14 -1
-32 -1 -40 1 -8 0 -37 -1 -65 0 -27 -1 -70 0 -95 0 -25 1 -53 1 -62 0 -10 0
-29 0 -43 0 -14 -1 -31 -1 -37 -1 -7 0 -17 1 -23 12 -49 -22 -81 -67 -64 -14
5 -25 4 -29 -2 -4 -8 -9 -8 -17 0 -7 7 -16 7 -29 0 -12 -6 -18 -6 -18 0 0 7
-8 7 -22 2 -13 -5 -32 -5 -43 -1 -11 4 -25 3 -32 -2 -7 -5 -14 -5 -18 2 -4 7
-12 7 -27 -1 -14 -7 -23 -8 -30 -1 -7 7 -19 7 -34 2 -15 -6 -24 -6 -24 0 0 6
-9 6 -25 0 -14 -5 -25 -6 -25 -1 0 5 -16 5 -35 1 -19 -4 -35 -4 -35 0 0 5 -12
5 -27 1 -16 -4 -40 -4 -55 0 -16 4 -28 4 -28 -1 0 -6 -10 -6 -25 0 -16 6 -25
6 -25 0 0 -6 -9 -6 -23 -1 -14 5 -30 5 -40 0 -11 -7 -17 -6 -17 0 0 5 -11 6
-27 2 -16 -4 -40 -4 -55 0 -16 4 -28 4 -28 -1 0 -6 -10 -6 -25 0 -16 6 -25 6
-25 0 0 -6 -9 -6 -23 -1 -14 5 -30 5 -40 0 -11 -7 -17 -6 -17 0 0 5 -11 6 -27
2 -16 -4 -40 -4 -55 0 -16 4 -28 4 -28 -1 0 -6 -10 -6 -25 0 -16 6 -25 6 -25
0 0 -6 -9 -6 -23 -1 -14 5 -30 5 -40 0 -11 -7 -17 -6 -17 0 0 5 -11 6 -27 2
-16 -4 -40 -4 -55 0 -16 4 -28 4 -28 -1 0 -6 -10 -6 -25 0 -17 6 -25 6 -25 -1
0 -6 -4 -7 -10 -4 -15 9 -80 12 -80 3 0 -4 -11 -3 -25 2 -16 6 -25 6 -25 0 0
-6 -9 -6 -22 -1 -13 4 -28 6 -34 4 -12 -4 -26 42 -16 52 9 9 9 45 1 45 -4 0
-4 14 1 30 5 17 5 30 0 30 -5 0 -5 13 0 30 5 17 5 30 0 30 -5 0 -5 13 0 30 5
17 5 30 0 30 -5 0 -5 13 0 30 5 17 5 30 0 30 -5 0 -5 13 0 30 5 17 5 30 0 30
-5 0 -5 13 0 30 5 17 5 30 0 30 -5 0 -5 13 0 30 5 17 5 30 0 30 -5 0 -5 13 0
30 5 17 5 30 1 30 -4 0 -4 27 -1 60 3 33 3 60 -1 60 -4 0 -4 14 1 30 5 17 5
30 0 30 -5 0 -5 13 0 30 5 17 5 30 0 30 -5 0 -5 13 0 30 5 17 5 30 0 30 -5 0
-5 13 0 30 5 17 5 30 0 30 -5 0 -5 13 0 30 5 17 5 30 0 30 -5 0 -5 13 0 30 5
17 5 30 0 30 -5 0 -5 13 0 30 5 17 5 30 0 30 -5 0 -5 13 0 30 5 17 5 30 0 30
-5 0 -5 13 0 30 5 17 5 30 0 30 -5 0 -5 13 0 30 5 17 5 30 0 30 -5 0 -5 13 0
29 4 15 4 34 0 42 -5 7 -4 21 1 30 6 11 5 20 -1 24 -6 3 -6 15 0 29 5 13 6 26
3 29 -8 9 -9 77 -1 77 4 0 5 7 1 16 -8 22 15 34 43 24 14 -6 26 -5 29 0z"/>
</g>
</svg>
